<svg width="600" height="600" viewBox="0 0 600 600" fill="none" xmlns="http://www.w3.org/2000/svg">
<path d="M331.18 39.5411L509.974 142.768C529.268 153.908 541.154 174.494 541.154 196.773V403.227C541.154 425.506 529.268 446.092 509.974 457.232L331.18 560.459C311.886 571.598 288.114 571.598 268.82 560.459L90.0259 457.232C70.7317 446.092 58.8461 425.506 58.8461 403.227V196.773C58.8461 174.494 70.7317 153.908 90.0259 142.768L268.82 39.5411C288.114 28.4016 311.886 28.4016 331.18 39.5411Z" fill="url(#paint0_linear_183_752)" stroke="#FB875B" stroke-width="6.13043"/>
<path fill-rule="evenodd" clip-rule="evenodd" d="M450.335 202.781L303.151 117.805C299.665 115.792 295.371 115.792 291.885 117.805L147.699 201.05L246.834 256.125C259.478 240.82 278.602 231.067 300.004 231.067C322.241 231.067 342.019 241.596 354.624 257.941L453.222 205.167C452.412 204.23 451.441 203.42 450.335 202.781ZM368.937 300C368.937 290.519 367.023 281.485 363.56 273.263L455.968 223.802V382.492C455.968 386.517 453.821 390.236 450.335 392.248L306.267 475.426V368.653C341.403 365.488 368.937 335.96 368.937 300ZM288.542 367.985C255.926 362.526 231.071 334.166 231.071 300C231.071 289.7 233.33 279.927 237.38 271.15L139.068 216.532V382.492C139.068 386.517 141.215 390.236 144.701 392.248L288.542 475.295V367.985ZM312.397 101.79C303.19 96.4745 291.846 96.4745 282.639 101.79L135.455 186.767C126.248 192.083 120.576 201.907 120.576 212.538V382.492C120.576 393.123 126.248 402.947 135.455 408.263L282.639 493.239C291.846 498.555 303.19 498.555 312.397 493.239L459.581 408.263C468.788 402.947 474.46 393.123 474.46 382.492V212.538C474.46 201.907 468.788 192.083 459.581 186.767L312.397 101.79ZM300.004 350.442C327.862 350.442 350.446 327.858 350.446 300C350.446 272.142 327.862 249.559 300.004 249.559C272.146 249.559 249.562 272.142 249.562 300C249.562 327.858 272.146 350.442 300.004 350.442Z" fill="url(#paint1_linear_183_752)"/>
<defs>
<linearGradient id="paint0_linear_183_752" x1="301.3" y1="30.9954" x2="301.3" y2="582" gradientUnits="userSpaceOnUse">
<stop stop-color="#DC3F04"/>
<stop offset="0.0001" stop-color="#F04705"/>
<stop offset="1" stop-color="#FB7643"/>
</linearGradient>
<linearGradient id="paint1_linear_183_752" x1="251.916" y1="150.553" x2="381.87" y2="458.544" gradientUnits="userSpaceOnUse">
<stop stop-color="white"/>
<stop offset="1" stop-color="#F2F2F2"/>
</linearGradient>
</defs>
</svg>
