<svg width="121" height="121" viewBox="0 0 121 121" fill="none" xmlns="http://www.w3.org/2000/svg">
<g clip-path="url(#clip0_37_37)">
<path d="M63.3495 3.25113L108.654 29.4078C110.417 30.4258 111.504 32.3073 111.504 34.3433V86.6567C111.504 88.6927 110.417 90.5742 108.654 91.5922L63.3495 117.749C61.5862 118.767 59.4138 118.767 57.6505 117.749L12.3458 91.5922C10.5825 90.5742 9.49627 88.6927 9.49627 86.6567V34.3433C9.49627 32.3073 10.5825 30.4258 12.3458 29.4078L57.6505 3.25113C59.4138 2.2331 61.5862 2.2331 63.3495 3.25113Z" stroke="url(#paint0_radial_37_37)" stroke-width="2.78161"/>
<path d="M63.3499 15.073L98.4166 35.3187C100.18 36.3368 101.266 38.2182 101.266 40.2542V80.7457C101.266 82.7818 100.18 84.6632 98.4166 85.6813L63.3499 105.927C61.5867 106.945 59.4142 106.945 57.6509 105.927L22.5842 85.6813C20.8209 84.6632 19.7347 82.7818 19.7347 80.7458V40.2542C19.7347 38.2182 20.8209 36.3368 22.5842 35.3187L57.6509 15.073C59.4142 14.0549 61.5867 14.0549 63.3499 15.073Z" stroke="url(#paint1_radial_37_37)" stroke-width="2.78161"/>
<path d="M36.1012 51.5517V41.664H38.6071C39.0508 41.664 39.465 41.716 39.8499 41.8202C40.2347 41.9243 40.5878 42.0714 40.9093 42.2616C41.2171 42.4336 41.491 42.6464 41.731 42.8999C41.9755 43.1535 42.1837 43.4342 42.3558 43.742C42.5459 44.0861 42.6908 44.4664 42.7904 44.8829C42.8945 45.2994 42.9466 45.7431 42.9466 46.214V47.0153C42.9466 47.4635 42.899 47.8914 42.804 48.2988C42.7089 48.7018 42.5731 49.0707 42.3965 49.4058C42.2245 49.7181 42.0207 50.0056 41.7853 50.2682C41.5499 50.5263 41.2918 50.7436 41.0111 50.9202C40.6897 51.1239 40.332 51.2801 39.9381 51.3887C39.5488 51.4974 39.13 51.5517 38.6818 51.5517H36.1012ZM37.8872 43.1037V50.1256H38.6818C38.9444 50.1256 39.1866 50.0939 39.4084 50.0305C39.6303 49.9626 39.8317 49.8675 40.0128 49.7453C40.203 49.6185 40.3705 49.4578 40.5154 49.2631C40.6648 49.0685 40.7893 48.8421 40.8889 48.584C40.9704 48.3667 41.0315 48.1268 41.0722 47.8642C41.1175 47.6016 41.1424 47.3186 41.1469 47.0153V46.2004C41.1424 45.9106 41.1175 45.6367 41.0722 45.3787C41.0315 45.1161 40.9681 44.8739 40.8821 44.652C40.778 44.3849 40.6399 44.1472 40.4678 43.939C40.3003 43.7262 40.1011 43.5541 39.8702 43.4229C39.6982 43.3233 39.5058 43.2463 39.293 43.192C39.0847 43.1331 38.8561 43.1037 38.6071 43.1037H37.8872ZM50.4642 47.1715H46.3896V50.112H51.1501V51.5517H44.6104V41.664H51.123V43.1173H46.3896V45.7522H50.4642V47.1715ZM58.0091 48.9915C58.0091 48.7878 57.9706 48.6044 57.8936 48.4414C57.8167 48.2739 57.699 48.12 57.5405 47.9796C57.3775 47.8483 57.1738 47.7284 56.9293 47.6197C56.6894 47.5111 56.4041 47.4115 56.0736 47.3209C55.5666 47.1806 55.1116 47.0108 54.7086 46.8116C54.3057 46.6079 53.9707 46.3815 53.7036 46.1325C53.4319 45.8835 53.2237 45.605 53.0788 45.2972C52.9339 44.9848 52.8615 44.6407 52.8615 44.2649C52.8615 43.8484 52.9498 43.4704 53.1263 43.1308C53.3074 42.7913 53.5542 42.5038 53.8666 42.2684C54.1744 42.0284 54.5366 41.8451 54.9531 41.7183C55.3696 41.5915 55.8156 41.5282 56.291 41.5282C56.789 41.5282 57.2485 41.6029 57.6695 41.7523C58.0951 41.8971 58.4618 42.1031 58.7697 42.3702C59.0775 42.6374 59.3175 42.9565 59.4895 43.3278C59.6661 43.699 59.7544 44.1065 59.7544 44.5502H58.0159C58.0023 44.3147 57.9548 44.0997 57.8733 43.905C57.7963 43.7103 57.6877 43.5428 57.5473 43.4025C57.3979 43.2621 57.2168 43.1535 57.004 43.0765C56.7912 42.995 56.5445 42.9543 56.2638 42.9543C56.0148 42.9543 55.7884 42.986 55.5847 43.0493C55.381 43.1127 55.2067 43.201 55.0618 43.3142C54.9169 43.4319 54.806 43.5723 54.729 43.7352C54.6521 43.8937 54.6136 44.0703 54.6136 44.2649C54.6136 44.4732 54.6634 44.6588 54.763 44.8218C54.8671 44.9803 55.012 45.1184 55.1976 45.2361C55.3832 45.3628 55.6005 45.476 55.8495 45.5756C56.1031 45.6707 56.377 45.759 56.6713 45.8405C57.0199 45.9401 57.3526 46.06 57.6695 46.2004C57.991 46.3407 58.2853 46.5082 58.5524 46.7029C58.9236 46.9791 59.2202 47.3051 59.442 47.6808C59.6638 48.0521 59.7748 48.4844 59.7748 48.9779C59.7748 49.4126 59.6842 49.7974 59.5031 50.1324C59.3266 50.4674 59.0821 50.7504 58.7697 50.9813C58.4618 51.2122 58.0974 51.3865 57.6763 51.5042C57.2598 51.6219 56.8116 51.6808 56.3317 51.6808C55.8428 51.6808 55.3606 51.6061 54.8852 51.4567C54.4098 51.3072 53.9956 51.0899 53.6425 50.8047C53.312 50.5285 53.0494 50.2048 52.8547 49.8336C52.6645 49.4578 52.5672 49.0232 52.5627 48.5297H54.3148C54.3284 48.8285 54.3849 49.0866 54.4845 49.3039C54.5887 49.5212 54.729 49.7023 54.9056 49.8472C55.0822 49.9875 55.2904 50.0917 55.5304 50.1596C55.7748 50.2275 56.042 50.2614 56.3317 50.2614C56.5852 50.2614 56.8139 50.232 57.0176 50.1731C57.2213 50.1143 57.3979 50.0305 57.5473 49.9219C57.6922 49.8132 57.8054 49.6797 57.8869 49.5212C57.9683 49.3627 58.0091 49.1862 58.0091 48.9915ZM61.554 41.664H67.3264V43.1105H65.3027V50.112H67.3264V51.5517H61.554V50.112H63.5234V43.1105H61.554V41.664ZM76.2906 50.3701C76.1593 50.524 75.9918 50.6779 75.788 50.8319C75.5843 50.9813 75.3489 51.1171 75.0818 51.2393C74.783 51.3797 74.4502 51.4883 74.0835 51.5653C73.7213 51.6468 73.3342 51.6875 72.9222 51.6875C72.551 51.6875 72.2024 51.6423 71.8764 51.5517C71.555 51.4567 71.2607 51.3254 70.9936 51.1578C70.7264 50.9858 70.4865 50.7775 70.2737 50.5331C70.0609 50.2841 69.8821 50.0056 69.7372 49.6978C69.5697 49.3627 69.4429 48.9915 69.3569 48.584C69.2754 48.1721 69.2347 47.7329 69.2347 47.2666V45.9627C69.2347 45.5145 69.2754 45.0935 69.3569 44.6996C69.4384 44.3012 69.5539 43.9344 69.7033 43.5994C69.8481 43.2961 70.0179 43.0222 70.2126 42.7777C70.4073 42.5332 70.6268 42.3204 70.8713 42.1393C71.143 41.9401 71.4418 41.7885 71.7677 41.6843C72.0982 41.5802 72.4514 41.5282 72.8271 41.5282C73.3614 41.5282 73.8322 41.5983 74.2397 41.7387C74.6517 41.879 75.0003 42.0805 75.2855 42.3431C75.5707 42.6102 75.7948 42.9339 75.9578 43.3142C76.1253 43.6945 76.2317 44.1201 76.277 44.5909H74.5521C74.5158 44.3419 74.4593 44.1201 74.3823 43.9254C74.3098 43.7262 74.2125 43.5587 74.0903 43.4229C73.9545 43.2735 73.7847 43.1625 73.5809 43.0901C73.3817 43.0131 73.1418 42.9746 72.8611 42.9746C72.6845 42.9746 72.517 43.0041 72.3586 43.0629C72.2046 43.1173 72.0643 43.1965 71.9375 43.3006C71.7791 43.4274 71.6387 43.5904 71.5165 43.7896C71.3942 43.9888 71.2946 44.2174 71.2177 44.4755C71.1498 44.6837 71.0977 44.9124 71.0615 45.1614C71.0298 45.4104 71.0139 45.673 71.0139 45.9491V47.2666C71.0185 47.6016 71.0434 47.914 71.0886 48.2037C71.1339 48.489 71.1996 48.747 71.2856 48.9779C71.3444 49.1364 71.4146 49.2835 71.4961 49.4193C71.5776 49.5552 71.6704 49.6751 71.7745 49.7793C71.9285 49.9287 72.105 50.0441 72.3042 50.1256C72.508 50.2026 72.7366 50.2433 72.9901 50.2478C73.1441 50.2524 73.298 50.2433 73.4519 50.2207C73.6058 50.198 73.753 50.1641 73.8933 50.1188C74.0292 50.0781 74.1514 50.0283 74.26 49.9694C74.3687 49.906 74.4547 49.8359 74.5181 49.7589L74.5249 47.8778H72.8136V46.5264H76.277L76.2906 50.3701ZM84.3787 51.5517H82.6062L79.6318 44.9644L79.625 51.5517H77.8389V41.664H79.625L82.5859 48.2309L82.5994 41.664H84.3787V51.5517Z" fill="white"/>
<path d="M43.3065 58.4161H40.2505V66.8506H38.4849V58.4161H35.4628V56.9628H43.3065V58.4161ZM51.3199 62.5994C51.3154 63.0114 51.2769 63.4075 51.2045 63.7878C51.132 64.1636 51.0256 64.5145 50.8853 64.8404C50.7404 65.1709 50.5593 65.4743 50.342 65.7504C50.1247 66.0221 49.8757 66.253 49.595 66.4431C49.3324 66.6152 49.0427 66.7487 48.7257 66.8438C48.4088 66.9389 48.0647 66.9864 47.6935 66.9864C47.3042 66.9864 46.9465 66.9343 46.6205 66.8302C46.2946 66.7261 45.998 66.5789 45.7309 66.3888C45.4728 66.1941 45.2419 65.961 45.0382 65.6893C44.8345 65.4131 44.6647 65.1053 44.5289 64.7657C44.4021 64.4488 44.307 64.1093 44.2437 63.7471C44.1803 63.3804 44.1463 62.9978 44.1418 62.5994V61.2276C44.1463 60.8111 44.1825 60.4104 44.2505 60.0256C44.3229 59.6408 44.4293 59.2831 44.5696 58.9526C44.7054 58.6357 44.8707 58.3482 45.0654 58.0901C45.2646 57.8276 45.4955 57.6012 45.7581 57.411C46.0161 57.2254 46.3059 57.0828 46.6273 56.9832C46.9488 56.8791 47.3019 56.827 47.6867 56.827C48.0715 56.827 48.4292 56.8791 48.7597 56.9832C49.0947 57.0873 49.3935 57.2322 49.6561 57.4178C49.9187 57.5989 50.1496 57.8185 50.3488 58.0766C50.548 58.3301 50.7178 58.6085 50.8581 58.9119C51.0075 59.2469 51.1207 59.6091 51.1977 59.9984C51.2746 60.3878 51.3154 60.7975 51.3199 61.2276V62.5994ZM49.5271 61.214C49.5271 60.965 49.5135 60.7228 49.4863 60.4874C49.4637 60.252 49.423 60.0301 49.3641 59.8219C49.2962 59.5774 49.2056 59.3555 49.0925 59.1563C48.9838 58.9571 48.8502 58.7896 48.6918 58.6538C48.5605 58.5497 48.4111 58.4682 48.2436 58.4093C48.0806 58.3459 47.895 58.3143 47.6867 58.3143C47.483 58.3143 47.3019 58.3437 47.1434 58.4025C46.985 58.4569 46.8446 58.5361 46.7224 58.6402C46.5639 58.776 46.4304 58.9436 46.3217 59.1428C46.2176 59.342 46.1361 59.5683 46.0772 59.8219C46.0274 60.0301 45.9912 60.252 45.9686 60.4874C45.9459 60.7228 45.9346 60.965 45.9346 61.214V62.5994C45.9346 62.8393 45.9437 63.0748 45.9618 63.3057C45.9844 63.532 46.0206 63.7471 46.0704 63.9508C46.1248 64.1908 46.2017 64.4149 46.3013 64.6231C46.4009 64.8269 46.5209 64.9944 46.6613 65.1257C46.788 65.2479 46.9352 65.343 47.1027 65.4109C47.2747 65.4788 47.4717 65.5128 47.6935 65.5128C47.9063 65.5128 48.0987 65.4811 48.2707 65.4177C48.4428 65.3543 48.5945 65.2615 48.7257 65.1392C48.8797 65.0034 49.0087 64.8359 49.1128 64.6367C49.2215 64.4375 49.3075 64.2134 49.3709 63.9644C49.4252 63.7652 49.4637 63.5501 49.4863 63.3192C49.5135 63.0838 49.5271 62.8439 49.5271 62.5994V61.214ZM55.6933 62.6809L54.6407 63.8489V66.8506H52.8547V56.9628H54.6407V61.5536L55.5439 60.3516L58.0566 56.9628H60.223L56.8682 61.3295L60.3656 66.8506H58.2536L55.6933 62.6809ZM67.1702 62.4704H63.0956V65.4109H67.8561V66.8506H61.3163V56.9628H67.8289V58.4161H63.0956V61.051H67.1702V62.4704ZM76.0257 66.8506H74.2533L71.2788 60.2633L71.272 66.8506H69.4859V56.9628H71.272L74.2329 63.5298L74.2465 56.9628H76.0257V66.8506ZM83.068 64.2904C83.068 64.0866 83.0295 63.9033 82.9526 63.7403C82.8756 63.5728 82.7579 63.4188 82.5994 63.2785C82.4365 63.1472 82.2327 63.0272 81.9882 62.9186C81.7483 62.8099 81.4631 62.7103 81.1326 62.6198C80.6255 62.4794 80.1705 62.3096 79.7676 62.1104C79.3646 61.9067 79.0296 61.6803 78.7625 61.4313C78.4909 61.1823 78.2826 60.9039 78.1377 60.596C77.9929 60.2837 77.9204 59.9396 77.9204 59.5638C77.9204 59.1473 78.0087 58.7693 78.1853 58.4297C78.3664 58.0901 78.6131 57.8027 78.9255 57.5672C79.2334 57.3273 79.5955 57.1439 80.0121 57.0172C80.4286 56.8904 80.8745 56.827 81.3499 56.827C81.8479 56.827 82.3074 56.9017 82.7285 57.0511C83.154 57.196 83.5208 57.402 83.8286 57.6691C84.1365 57.9362 84.3764 58.2554 84.5485 58.6266C84.725 58.9979 84.8133 59.4053 84.8133 59.849H83.0748C83.0612 59.6136 83.0137 59.3986 82.9322 59.2039C82.8552 59.0092 82.7466 58.8417 82.6062 58.7013C82.4568 58.561 82.2757 58.4523 82.063 58.3754C81.8502 58.2939 81.6034 58.2531 81.3227 58.2531C81.0737 58.2531 80.8474 58.2848 80.6436 58.3482C80.4399 58.4116 80.2656 58.4999 80.1207 58.6131C79.9758 58.7308 79.8649 58.8711 79.788 59.0341C79.711 59.1926 79.6725 59.3691 79.6725 59.5638C79.6725 59.7721 79.7223 59.9577 79.8219 60.1207C79.926 60.2791 80.0709 60.4172 80.2565 60.5349C80.4422 60.6617 80.6595 60.7749 80.9085 60.8745C81.162 60.9695 81.4359 61.0578 81.7302 61.1393C82.0788 61.2389 82.4116 61.3589 82.7285 61.4992C83.0499 61.6396 83.3442 61.8071 83.6113 62.0018C83.9826 62.278 84.2791 62.6039 84.5009 62.9797C84.7228 63.3509 84.8337 63.7833 84.8337 64.2768C84.8337 64.7114 84.7431 65.0962 84.5621 65.4313C84.3855 65.7663 84.141 66.0492 83.8286 66.2801C83.5208 66.511 83.1563 66.6853 82.7353 66.803C82.3187 66.9208 81.8705 66.9796 81.3906 66.9796C80.9017 66.9796 80.4195 66.9049 79.9441 66.7555C79.4688 66.6061 79.0545 66.3888 78.7014 66.1036C78.3709 65.8274 78.1083 65.5037 77.9136 65.1325C77.7235 64.7567 77.6261 64.3221 77.6216 63.8286H79.3737C79.3873 64.1274 79.4439 64.3854 79.5435 64.6028C79.6476 64.8201 79.788 65.0012 79.9645 65.146C80.1411 65.2864 80.3493 65.3905 80.5893 65.4584C80.8338 65.5263 81.1009 65.5603 81.3906 65.5603C81.6442 65.5603 81.8728 65.5309 82.0765 65.472C82.2803 65.4131 82.4568 65.3294 82.6062 65.2207C82.7511 65.1121 82.8643 64.9785 82.9458 64.8201C83.0273 64.6616 83.068 64.485 83.068 64.2904Z" fill="white"/>
<path d="M48.7545 83.2356V73.7221H51.9691C52.7154 73.7221 53.3255 73.8568 53.7993 74.1263C54.2762 74.3926 54.6293 74.7534 54.8584 75.2086C55.0876 75.6638 55.2022 76.1717 55.2022 76.7322C55.2022 77.2928 55.0876 77.8022 54.8584 78.2605C54.6324 78.7189 54.2824 79.0843 53.8086 79.3568C53.3348 79.6263 52.7278 79.761 51.9876 79.761H49.6836V78.739H51.9505C52.4615 78.739 52.8718 78.6507 53.1815 78.4742C53.4912 78.2977 53.7157 78.0592 53.855 77.7589C53.9975 77.4554 54.0687 77.1132 54.0687 76.7322C54.0687 76.3513 53.9975 76.0107 53.855 75.7103C53.7157 75.4099 53.4896 75.1745 53.1768 75.0042C52.8641 74.8308 52.4491 74.7441 51.9319 74.7441H49.9066V83.2356H48.7545ZM57.058 83.2356V73.7221H60.2725C61.0157 73.7221 61.6258 73.8491 62.1027 74.103C62.5796 74.3539 62.9327 74.6992 63.1618 75.1389C63.391 75.5787 63.5056 76.0788 63.5056 76.6393C63.5056 77.1999 63.391 77.6969 63.1618 78.1305C62.9327 78.564 62.5812 78.9047 62.1074 79.1524C61.6336 79.3971 61.0281 79.5194 60.2911 79.5194H57.6897V78.4789H60.2539C60.7618 78.4789 61.1706 78.4045 61.4803 78.2559C61.793 78.1072 62.0191 77.8967 62.1585 77.6241C62.3009 77.3485 62.3721 77.0203 62.3721 76.6393C62.3721 76.2584 62.3009 75.9255 62.1585 75.6406C62.016 75.3557 61.7884 75.1358 61.4756 74.981C61.1628 74.823 60.7494 74.7441 60.2353 74.7441H58.21V83.2356H57.058ZM61.536 78.962L63.8772 83.2356H62.5394L60.2353 78.962H61.536ZM73.4523 78.4789C73.4523 79.4822 73.2711 80.3494 72.9088 81.0802C72.5465 81.8111 72.0494 82.3747 71.4177 82.7711C70.7859 83.1675 70.0643 83.3657 69.253 83.3657C68.4416 83.3657 67.72 83.1675 67.0883 82.7711C66.4565 82.3747 65.9595 81.8111 65.5971 81.0802C65.2348 80.3494 65.0536 79.4822 65.0536 78.4789C65.0536 77.4755 65.2348 76.6084 65.5971 75.8775C65.9595 75.1467 66.4565 74.583 67.0883 74.1866C67.72 73.7902 68.4416 73.592 69.253 73.592C70.0643 73.592 70.7859 73.7902 71.4177 74.1866C72.0494 74.583 72.5465 75.1467 72.9088 75.8775C73.2711 76.6084 73.4523 77.4755 73.4523 78.4789ZM72.3374 78.4789C72.3374 77.6551 72.1996 76.9599 71.924 76.3931C71.6515 75.8264 71.2814 75.3975 70.8138 75.1064C70.3492 74.8153 69.829 74.6697 69.253 74.6697C68.6769 74.6697 68.1551 74.8153 67.6875 75.1064C67.223 75.3975 66.8529 75.8264 66.5773 76.3931C66.3048 76.9599 66.1685 77.6551 66.1685 78.4789C66.1685 79.3026 66.3048 79.9979 66.5773 80.5646C66.8529 81.1313 67.223 81.5602 67.6875 81.8513C68.1551 82.1424 68.6769 82.288 69.253 82.288C69.829 82.288 70.3492 82.1424 70.8138 81.8513C71.2814 81.5602 71.6515 81.1313 71.924 80.5646C72.1996 79.9979 72.3374 79.3026 72.3374 78.4789Z" fill="white"/>
</g>
<defs>
<radialGradient id="paint0_radial_37_37" cx="0" cy="0" r="1" gradientUnits="userSpaceOnUse" gradientTransform="translate(85.5345 84.8391) rotate(-123.69) scale(72.7119)">
<stop stop-color="#DF19F0"/>
<stop offset="1" stop-color="#61F99E"/>
</radialGradient>
<radialGradient id="paint1_radial_37_37" cx="0" cy="0" r="1" gradientUnits="userSpaceOnUse" gradientTransform="translate(80.6431 80.0832) rotate(-123.69) scale(58.5039)">
<stop stop-color="#DF19F0"/>
<stop offset="1" stop-color="#61F99E"/>
</radialGradient>
<clipPath id="clip0_37_37">
<rect width="121" height="121" fill="white"/>
</clipPath>
</defs>
</svg>
