<svg width="439" height="394" viewBox="0 0 439 394" fill="none" xmlns="http://www.w3.org/2000/svg">
<g opacity="0.2">
<g opacity="0.3">
<path d="M292.644 127.831L346.029 158.653C348.107 159.853 349.387 162.07 349.387 164.469V226.113C349.387 228.512 348.107 230.729 346.029 231.929L292.644 262.751C290.566 263.951 288.006 263.951 285.928 262.751L232.543 231.929C230.465 230.729 229.185 228.512 229.185 226.113V164.469C229.185 162.07 230.465 159.853 232.543 158.653L285.928 127.831C288.006 126.631 290.566 126.631 292.644 127.831Z" stroke="white" stroke-width="3.27775"/>
<path d="M291.682 146.461L328.891 167.943C330.762 169.023 331.915 171.02 331.915 173.18V216.145C331.915 218.306 330.762 220.302 328.891 221.382L291.682 242.865C289.811 243.945 287.506 243.945 285.635 242.865L248.426 221.382C246.555 220.302 245.403 218.306 245.403 216.145V173.18C245.403 171.02 246.555 169.023 248.426 167.943L285.635 146.461C287.506 145.38 289.811 145.38 291.682 146.461Z" stroke="white" stroke-width="2.95154"/>
<path d="M291.682 146.461L328.891 167.943C330.762 169.023 331.915 171.02 331.915 173.18V216.145C331.915 218.306 330.762 220.302 328.891 221.382L291.682 242.865C289.811 243.945 287.506 243.945 285.635 242.865L248.426 221.382C246.555 220.302 245.403 218.306 245.403 216.145V173.18C245.403 171.02 246.555 169.023 248.426 167.943L285.635 146.461C287.506 145.38 289.811 145.38 291.682 146.461Z" fill="#61F99E" fill-opacity="0.1" stroke="white" stroke-width="2.95154"/>
<circle cx="289.287" cy="195.291" r="15.5872" stroke="white" stroke-width="3.67897"/>
<line x1="247.281" y1="170.143" x2="275.798" y2="185.985" stroke="white" stroke-width="3.16849"/>
<line x1="302.9" y1="185.922" x2="331.416" y2="173.248" stroke="white" stroke-width="3.16849"/>
<line x1="289.286" y1="209.549" x2="289.286" y2="244.403" stroke="white" stroke-width="3.16849"/>
</g>
<g opacity="0.3">
<path d="M219.649 3.83102L273.034 34.6531C275.112 35.8528 276.392 38.0698 276.392 40.469V102.113C276.392 104.512 275.112 106.729 273.034 107.929L219.649 138.751C217.571 139.951 215.011 139.951 212.933 138.751L159.548 107.929C157.47 106.729 156.19 104.512 156.19 102.113V40.469C156.19 38.0698 157.47 35.8528 159.548 34.6532L212.933 3.83103C215.011 2.63141 217.571 2.63141 219.649 3.83102Z" stroke="white" stroke-width="3.27775"/>
<path d="M218.687 22.4606L255.896 43.9432C257.767 45.0234 258.92 47.0198 258.92 49.1802V92.1454C258.92 94.3058 257.767 96.3022 255.896 97.3824L218.687 118.865C216.816 119.945 214.511 119.945 212.64 118.865L175.431 97.3824C173.56 96.3022 172.408 94.3058 172.408 92.1454V49.1802C172.408 47.0198 173.56 45.0234 175.431 43.9432L212.64 22.4606C214.511 21.3804 216.816 21.3804 218.687 22.4606Z" stroke="white" stroke-width="2.95154"/>
<path d="M218.687 22.4606L255.896 43.9432C257.767 45.0234 258.92 47.0198 258.92 49.1802V92.1454C258.92 94.3058 257.767 96.3022 255.896 97.3824L218.687 118.865C216.816 119.945 214.511 119.945 212.64 118.865L175.431 97.3824C173.56 96.3022 172.408 94.3058 172.408 92.1454V49.1802C172.408 47.0198 173.56 45.0234 175.431 43.9432L212.64 22.4606C214.511 21.3804 216.816 21.3804 218.687 22.4606Z" fill="#61F99E" fill-opacity="0.1" stroke="white" stroke-width="2.95154"/>
<circle cx="216.292" cy="71.2911" r="15.5872" stroke="white" stroke-width="3.67897"/>
<line x1="174.286" y1="46.1425" x2="202.802" y2="61.985" stroke="white" stroke-width="3.16849"/>
<line x1="229.904" y1="61.922" x2="258.421" y2="49.248" stroke="white" stroke-width="3.16849"/>
<line x1="216.291" y1="85.5492" x2="216.291" y2="120.403" stroke="white" stroke-width="3.16849"/>
</g>
<g opacity="0.3">
<path d="M145.649 127.831L199.034 158.653C201.112 159.853 202.392 162.07 202.392 164.469V226.113C202.392 228.512 201.112 230.729 199.034 231.929L145.649 262.751C143.571 263.951 141.011 263.951 138.933 262.751L85.5479 231.929C83.4701 230.729 82.1901 228.512 82.1901 226.113V164.469C82.1901 162.07 83.4701 159.853 85.5479 158.653L138.933 127.831C141.011 126.631 143.571 126.631 145.649 127.831Z" stroke="white" stroke-width="3.27775"/>
<path d="M144.687 146.461L181.896 167.943C183.767 169.023 184.92 171.02 184.92 173.18V216.145C184.92 218.306 183.767 220.302 181.896 221.382L144.687 242.865C142.816 243.945 140.511 243.945 138.64 242.865L101.431 221.382C99.5601 220.302 98.4075 218.306 98.4075 216.145V173.18C98.4075 171.02 99.5601 169.023 101.431 167.943L138.64 146.461C140.511 145.38 142.816 145.38 144.687 146.461Z" stroke="white" stroke-width="2.95154"/>
<path d="M144.687 146.461L181.896 167.943C183.767 169.023 184.92 171.02 184.92 173.18V216.145C184.92 218.306 183.767 220.302 181.896 221.382L144.687 242.865C142.816 243.945 140.511 243.945 138.64 242.865L101.431 221.382C99.5601 220.302 98.4075 218.306 98.4075 216.145V173.18C98.4075 171.02 99.5601 169.023 101.431 167.943L138.64 146.461C140.511 145.38 142.816 145.38 144.687 146.461Z" fill="#61F99E" fill-opacity="0.1" stroke="white" stroke-width="2.95154"/>
<circle cx="142.292" cy="195.291" r="15.5872" stroke="white" stroke-width="3.67897"/>
<line x1="100.286" y1="170.143" x2="128.802" y2="185.985" stroke="white" stroke-width="3.16849"/>
<line x1="155.904" y1="185.922" x2="184.421" y2="173.248" stroke="white" stroke-width="3.16849"/>
<line x1="142.291" y1="209.549" x2="142.291" y2="244.403" stroke="white" stroke-width="3.16849"/>
</g>
<g opacity="0.3">
<path d="M74.6489 254.831L128.034 285.653C130.112 286.853 131.392 289.07 131.392 291.469V353.113C131.392 355.512 130.112 357.729 128.034 358.929L74.6489 389.751C72.5711 390.951 70.0111 390.951 67.9333 389.751L14.5479 358.929C12.4701 357.729 11.1901 355.512 11.1901 353.113L11.1901 291.469C11.1901 289.07 12.4701 286.853 14.5479 285.653L67.9333 254.831C70.0111 253.631 72.5711 253.631 74.6489 254.831Z" stroke="white" stroke-width="3.27775"/>
<path d="M73.6872 273.461L110.896 294.943C112.767 296.023 113.92 298.02 113.92 300.18V343.145C113.92 345.306 112.767 347.302 110.896 348.382L73.6872 369.865C71.8162 370.945 69.511 370.945 67.64 369.865L30.4311 348.382C28.5601 347.302 27.4075 345.306 27.4075 343.145L27.4075 300.18C27.4075 298.02 28.5601 296.023 30.4311 294.943L67.64 273.461C69.511 272.38 71.8162 272.38 73.6872 273.461Z" stroke="white" stroke-width="2.95154"/>
<path d="M73.6872 273.461L110.896 294.943C112.767 296.023 113.92 298.02 113.92 300.18V343.145C113.92 345.306 112.767 347.302 110.896 348.382L73.6872 369.865C71.8162 370.945 69.511 370.945 67.64 369.865L30.4311 348.382C28.5601 347.302 27.4075 345.306 27.4075 343.145L27.4075 300.18C27.4075 298.02 28.5601 296.023 30.4311 294.943L67.64 273.461C69.511 272.38 71.8162 272.38 73.6872 273.461Z" fill="#61F99E" fill-opacity="0.1" stroke="white" stroke-width="2.95154"/>
<circle cx="71.292" cy="322.291" r="15.5872" stroke="white" stroke-width="3.67897"/>
<line x1="29.286" y1="297.143" x2="57.8024" y2="312.985" stroke="white" stroke-width="3.16849"/>
<line x1="84.9044" y1="312.922" x2="113.421" y2="300.248" stroke="white" stroke-width="3.16849"/>
<line x1="71.2913" y1="336.549" x2="71.2913" y2="371.403" stroke="white" stroke-width="3.16849"/>
</g>
<g opacity="0.3">
<path d="M370.739 250.298L424.124 281.12C426.202 282.32 427.482 284.537 427.482 286.936V348.58C427.482 350.979 426.202 353.196 424.124 354.396L370.739 385.218C368.661 386.418 366.101 386.418 364.023 385.218L310.638 354.396C308.56 353.196 307.28 350.979 307.28 348.58V286.936C307.28 284.537 308.56 282.32 310.638 281.12L364.023 250.298C366.101 249.098 368.661 249.098 370.739 250.298Z" stroke="white" stroke-width="3.27775"/>
<path d="M369.777 268.928L406.986 290.41C408.857 291.491 410.01 293.487 410.01 295.647V338.612C410.01 340.773 408.857 342.769 406.986 343.849L369.777 365.332C367.906 366.412 365.601 366.412 363.73 365.332L326.521 343.849C324.65 342.769 323.497 340.773 323.497 338.612V295.647C323.497 293.487 324.65 291.491 326.521 290.41L363.73 268.928C365.601 267.848 367.906 267.848 369.777 268.928Z" stroke="white" stroke-width="2.95154"/>
<path d="M369.777 268.928L406.986 290.41C408.857 291.491 410.01 293.487 410.01 295.647V338.612C410.01 340.773 408.857 342.769 406.986 343.849L369.777 365.332C367.906 366.412 365.601 366.412 363.73 365.332L326.521 343.849C324.65 342.769 323.497 340.773 323.497 338.612V295.647C323.497 293.487 324.65 291.491 326.521 290.41L363.73 268.928C365.601 267.848 367.906 267.848 369.777 268.928Z" fill="#61F99E" fill-opacity="0.1" stroke="white" stroke-width="2.95154"/>
<circle cx="367.383" cy="317.758" r="15.5872" stroke="white" stroke-width="3.67897"/>
<line x1="325.377" y1="292.61" x2="353.893" y2="308.452" stroke="white" stroke-width="3.16849"/>
<line x1="380.995" y1="308.389" x2="409.512" y2="295.715" stroke="white" stroke-width="3.16849"/>
<line x1="367.381" y1="332.016" x2="367.381" y2="366.87" stroke="white" stroke-width="3.16849"/>
</g>
<g opacity="0.3">
<path d="M221.649 255.031L275.034 285.853C277.112 287.053 278.392 289.27 278.392 291.669V353.313C278.392 355.712 277.112 357.929 275.034 359.129L221.649 389.951C219.571 391.151 217.011 391.151 214.933 389.951L161.548 359.129C159.47 357.929 158.19 355.712 158.19 353.313V291.669C158.19 289.27 159.47 287.053 161.548 285.853L214.933 255.031C217.011 253.831 219.571 253.831 221.649 255.031Z" stroke="white" stroke-width="3.27775"/>
<path d="M220.687 273.661L257.896 295.143C259.767 296.223 260.92 298.22 260.92 300.38V343.345C260.92 345.506 259.767 347.502 257.896 348.582L220.687 370.065C218.816 371.145 216.511 371.145 214.64 370.065L177.431 348.582C175.56 347.502 174.408 345.506 174.408 343.345V300.38C174.408 298.22 175.56 296.223 177.431 295.143L214.64 273.661C216.511 272.58 218.816 272.58 220.687 273.661Z" stroke="white" stroke-width="2.95154"/>
<path d="M220.687 273.661L257.896 295.143C259.767 296.223 260.92 298.22 260.92 300.38V343.345C260.92 345.506 259.767 347.502 257.896 348.582L220.687 370.065C218.816 371.145 216.511 371.145 214.64 370.065L177.431 348.582C175.56 347.502 174.408 345.506 174.408 343.345V300.38C174.408 298.22 175.56 296.223 177.431 295.143L214.64 273.661C216.511 272.58 218.816 272.58 220.687 273.661Z" fill="#61F99E" fill-opacity="0.1" stroke="white" stroke-width="2.95154"/>
<circle cx="218.292" cy="322.491" r="15.5872" stroke="white" stroke-width="3.67897"/>
<line x1="176.286" y1="297.343" x2="204.802" y2="313.185" stroke="white" stroke-width="3.16849"/>
<line x1="231.904" y1="313.122" x2="260.421" y2="300.448" stroke="white" stroke-width="3.16849"/>
<line x1="218.291" y1="336.749" x2="218.291" y2="371.603" stroke="white" stroke-width="3.16849"/>
</g>
</g>
</svg>
