<svg width="217" height="231" viewBox="0 0 217 231" fill="none" xmlns="http://www.w3.org/2000/svg">
<g filter="url(#filter0_d_175_551)">
<path d="M97.8279 7.16156C104.432 3.34877 112.568 3.34877 119.172 7.16156L191.792 49.0884C198.396 52.9012 202.464 59.9475 202.464 67.5731V151.427C202.464 159.052 198.396 166.099 191.792 169.912L119.172 211.838C112.568 215.651 104.432 215.651 97.8279 211.838L25.2084 169.912C18.6044 166.099 14.5362 159.052 14.5362 151.427V67.5731C14.5362 59.9475 18.6044 52.9012 25.2084 49.0884L97.8279 7.16156Z" fill="url(#paint0_linear_175_551)"/>
<path d="M118.672 8.02758L191.292 49.9545C197.586 53.5886 201.464 60.3048 201.464 67.5731V151.427C201.464 158.695 197.586 165.411 191.292 169.046L118.672 210.972C112.378 214.607 104.622 214.607 98.3279 210.972L25.7084 169.046C19.4138 165.411 15.5362 158.695 15.5362 151.427V67.5731C15.5362 60.3048 19.4138 53.5886 25.7084 49.9545L98.3279 8.02758C104.622 4.39343 112.378 4.39343 118.672 8.02758Z" stroke="#FB875B" stroke-width="2"/>
</g>
<path fill-rule="evenodd" clip-rule="evenodd" d="M166.342 72.0949L109.713 39.4C108.372 38.6256 106.719 38.6256 105.378 39.4L49.9024 71.4289L88.0445 92.619C92.9091 86.7305 100.267 82.9778 108.502 82.9778C117.057 82.9778 124.667 87.029 129.517 93.3177L167.453 73.0125C167.141 72.6521 166.767 72.3405 166.342 72.0949ZM135.024 109.5C135.024 105.852 134.287 102.376 132.955 99.2128L168.509 80.1824V141.239C168.509 142.787 167.683 144.218 166.342 144.993L110.911 176.996V135.914C124.43 134.697 135.024 123.336 135.024 109.5ZM104.091 135.657C91.5426 133.557 81.9795 122.645 81.9795 109.5C81.9795 105.537 82.8487 101.777 84.407 98.3999L46.5816 77.3858V141.239C46.5816 142.787 47.4077 144.218 48.7489 144.993L104.091 176.944V135.657ZM113.27 33.2384C109.728 31.1932 105.363 31.1932 101.821 33.2384L45.1915 65.9333C41.649 67.9786 39.4668 71.7583 39.4668 75.8488V141.239C39.4668 145.329 41.649 149.109 45.1915 151.154L101.821 183.849C105.363 185.894 109.728 185.894 113.27 183.849L169.9 151.154C173.442 149.109 175.624 145.329 175.624 141.239V75.8488C175.624 71.7583 173.442 67.9786 169.9 65.9333L113.27 33.2384ZM108.502 128.907C119.22 128.907 127.909 120.218 127.909 109.5C127.909 98.7816 119.22 90.0925 108.502 90.0925C97.7833 90.0925 89.0942 98.7816 89.0942 109.5C89.0942 120.218 97.7833 128.907 108.502 128.907Z" fill="url(#paint1_linear_175_551)"/>
<defs>
<filter id="filter0_d_175_551" x="4.53613" y="0.302002" width="207.928" height="230.396" filterUnits="userSpaceOnUse" color-interpolation-filters="sRGB">
<feFlood flood-opacity="0" result="BackgroundImageFix"/>
<feColorMatrix in="SourceAlpha" type="matrix" values="0 0 0 0 0 0 0 0 0 0 0 0 0 0 0 0 0 0 127 0" result="hardAlpha"/>
<feOffset dy="6"/>
<feGaussianBlur stdDeviation="5"/>
<feComposite in2="hardAlpha" operator="out"/>
<feColorMatrix type="matrix" values="0 0 0 0 0 0 0 0 0 0 0 0 0 0 0 0 0 0 0.15 0"/>
<feBlend mode="normal" in2="BackgroundImageFix" result="effect1_dropShadow_175_551"/>
<feBlend mode="normal" in="SourceGraphic" in2="effect1_dropShadow_175_551" result="shape"/>
</filter>
<linearGradient id="paint0_linear_175_551" x1="109" y1="6" x2="109" y2="218" gradientUnits="userSpaceOnUse">
<stop stop-color="#DC3F04"/>
<stop offset="0.0001" stop-color="#F04705"/>
<stop offset="1" stop-color="#FB7643"/>
</linearGradient>
<linearGradient id="paint1_linear_175_551" x1="90" y1="52" x2="140" y2="170.5" gradientUnits="userSpaceOnUse">
<stop stop-color="white"/>
<stop offset="1" stop-color="#F2F2F2"/>
</linearGradient>
</defs>
</svg>
