<svg width="308" height="59" viewBox="0 0 308 59" fill="none" xmlns="http://www.w3.org/2000/svg">
<g filter="url(#filter0_d_174_34)">
<path d="M24.4426 3.4765C26.0251 2.56284 27.9749 2.56284 29.5574 3.4765L46.9593 13.5235C48.5418 14.4372 49.5167 16.1257 49.5167 17.953V38.047C49.5167 39.8743 48.5418 41.5628 46.9593 42.4765L29.5574 52.5235C27.9749 53.4372 26.0251 53.4372 24.4426 52.5235L7.04072 42.4765C5.45821 41.5628 4.48334 39.8743 4.48334 38.047V17.953C4.48334 16.1257 5.45821 14.4372 7.04072 13.5235L24.4426 3.4765Z" fill="url(#paint0_linear_174_34)"/>
<path d="M29.4376 3.68403L46.8395 13.731C48.3478 14.6019 49.277 16.2113 49.277 17.953V38.047C49.277 39.7887 48.3478 41.3981 46.8395 42.269L29.4376 52.316C27.9292 53.1868 26.0708 53.1868 24.5624 52.316L7.16053 42.269C5.65216 41.3981 4.72297 39.7887 4.72297 38.047V17.953C4.72297 16.2113 5.65216 14.6019 7.16053 13.731L24.5624 3.68403C26.0708 2.81317 27.9292 2.81317 29.4376 3.68403Z" stroke="#FA7441" stroke-width="0.479263"/>
</g>
<path fill-rule="evenodd" clip-rule="evenodd" d="M40.8603 19.0365L27.2902 11.2018C26.9688 11.0163 26.5728 11.0163 26.2515 11.2018L12.6813 19.0365C12.3599 19.2221 12.1619 19.565 12.1619 19.9361V35.6056C12.1619 35.9767 12.3599 36.3196 12.6813 36.5051L26.2515 44.3399C26.5728 44.5254 26.9688 44.5254 27.2902 44.3399L40.8603 36.5051C41.1817 36.3196 41.3797 35.9767 41.3797 35.6056V19.9361C41.3797 19.565 41.1817 19.2221 40.8603 19.0365ZM28.1426 9.72531C27.2938 9.2352 26.2479 9.2352 25.399 9.7253L11.8289 17.56C10.98 18.0501 10.457 18.9559 10.457 19.9361V35.6056C10.457 36.5858 10.98 37.4915 11.8288 37.9816L25.399 45.8164C26.2479 46.3065 27.2938 46.3065 28.1426 45.8164L41.7128 37.9816C42.5617 37.4915 43.0846 36.5858 43.0846 35.6056V19.9361C43.0846 18.9559 42.5617 18.0501 41.7128 17.56L28.1426 9.72531Z" fill="url(#paint1_linear_174_34)"/>
<path fill-rule="evenodd" clip-rule="evenodd" d="M27.0001 32.6506C29.5686 32.6506 31.6507 30.5685 31.6507 28C31.6507 25.4315 29.5686 23.3494 27.0001 23.3494C24.4316 23.3494 22.3494 25.4315 22.3494 28C22.3494 30.5685 24.4316 32.6506 27.0001 32.6506ZM27.0001 34.3556C30.5102 34.3556 33.3556 31.5101 33.3556 28C33.3556 24.4899 30.5102 21.6444 27.0001 21.6444C23.49 21.6444 20.6445 24.4899 20.6445 28C20.6445 31.5101 23.49 34.3556 27.0001 34.3556Z" fill="url(#paint2_linear_174_34)"/>
<path fill-rule="evenodd" clip-rule="evenodd" d="M21.7997 25.111L11.3998 19.3333L11.9609 18.3231L22.3609 24.1009L21.7997 25.111Z" fill="url(#paint3_linear_174_34)"/>
<path fill-rule="evenodd" clip-rule="evenodd" d="M42.5998 20.4889L32.1998 25.1111L31.7305 24.0551L42.1305 19.4329L42.5998 20.4889Z" fill="url(#paint4_linear_174_34)"/>
<path fill-rule="evenodd" clip-rule="evenodd" d="M26.1823 45.9111L26.1823 33.2L27.3379 33.2L27.3379 45.9111L26.1823 45.9111Z" fill="url(#paint5_linear_174_34)"/>
<path d="M66.9149 35.5V17.98H73.6829C75.4269 17.98 76.8589 18.3 77.9789 18.94C79.1149 19.58 79.9549 20.492 80.4989 21.676C81.0429 22.86 81.3149 24.276 81.3149 25.924V27.556C81.3149 29.348 81.0109 30.828 80.4029 31.996C79.7949 33.164 78.9149 34.044 77.7629 34.636C76.6269 35.212 75.2669 35.5 73.6829 35.5H66.9149ZM71.2109 31.9H73.5629C74.3149 31.9 74.9309 31.772 75.4109 31.516C75.8909 31.244 76.2509 30.86 76.4909 30.364C76.7309 29.868 76.8509 29.276 76.8509 28.588V24.916C76.8509 24.212 76.7309 23.62 76.4909 23.14C76.2669 22.644 75.9069 22.268 75.4109 22.012C74.9309 21.74 74.3149 21.604 73.5629 21.604H71.2109V31.9ZM83.6962 35.5V18.004H95.8162V21.604H87.9922V24.916H94.6882V28.324H87.9922V31.9H95.8642V35.5H83.6962ZM104.319 35.74C102.815 35.74 101.567 35.508 100.575 35.044C99.5829 34.564 98.8389 33.9 98.3429 33.052C97.8469 32.188 97.6069 31.188 97.6229 30.052H101.895C101.895 30.58 101.991 31.02 102.183 31.372C102.375 31.708 102.663 31.964 103.047 32.14C103.431 32.3 103.887 32.38 104.415 32.38C104.911 32.38 105.319 32.316 105.639 32.188C105.975 32.06 106.223 31.876 106.383 31.636C106.559 31.38 106.647 31.076 106.647 30.724C106.647 30.34 106.559 30.028 106.383 29.788C106.207 29.548 105.951 29.348 105.615 29.188C105.295 29.012 104.911 28.86 104.463 28.732C104.031 28.604 103.543 28.468 102.999 28.324C102.231 28.116 101.527 27.868 100.887 27.58C100.247 27.276 99.6949 26.924 99.2309 26.524C98.7829 26.108 98.4389 25.612 98.1989 25.036C97.9589 24.46 97.8389 23.796 97.8389 23.044C97.8389 21.876 98.1029 20.908 98.6309 20.14C99.1749 19.356 99.9349 18.772 100.911 18.388C101.887 17.988 103.023 17.788 104.319 17.788C105.695 17.788 106.871 17.988 107.847 18.388C108.823 18.788 109.567 19.38 110.079 20.164C110.591 20.948 110.855 21.924 110.871 23.092H106.599C106.599 22.644 106.511 22.276 106.335 21.988C106.159 21.684 105.895 21.452 105.543 21.292C105.207 21.132 104.791 21.052 104.295 21.052C103.879 21.052 103.519 21.116 103.215 21.244C102.911 21.356 102.679 21.532 102.519 21.772C102.375 21.996 102.303 22.26 102.303 22.564C102.303 22.884 102.375 23.156 102.519 23.38C102.679 23.588 102.903 23.772 103.191 23.932C103.479 24.076 103.831 24.212 104.247 24.34C104.663 24.452 105.143 24.572 105.687 24.7C106.295 24.844 106.871 25.02 107.415 25.228C107.959 25.42 108.463 25.66 108.927 25.948C109.391 26.22 109.791 26.564 110.127 26.98C110.463 27.38 110.719 27.86 110.895 28.42C111.087 28.964 111.183 29.604 111.183 30.34C111.183 31.572 110.887 32.588 110.295 33.388C109.719 34.188 108.911 34.78 107.871 35.164C106.847 35.548 105.663 35.74 104.319 35.74ZM113.509 35.5V18.004H117.805V35.5H113.509ZM126.869 35.74C125.445 35.74 124.229 35.452 123.221 34.876C122.213 34.3 121.445 33.444 120.917 32.308C120.389 31.172 120.125 29.748 120.125 28.036V25.948C120.125 24.556 120.309 23.348 120.677 22.324C121.061 21.3 121.589 20.452 122.261 19.78C122.949 19.108 123.773 18.604 124.733 18.268C125.709 17.932 126.789 17.764 127.973 17.764C129.397 17.764 130.645 18.004 131.717 18.484C132.805 18.948 133.661 19.636 134.285 20.548C134.909 21.46 135.245 22.588 135.293 23.932H130.949C130.853 23.356 130.669 22.884 130.397 22.516C130.141 22.148 129.797 21.876 129.365 21.7C128.949 21.524 128.461 21.436 127.901 21.436C127.165 21.436 126.549 21.572 126.053 21.844C125.557 22.1 125.189 22.476 124.949 22.972C124.709 23.452 124.589 24.028 124.589 24.7V28.876C124.589 29.452 124.661 29.948 124.805 30.364C124.965 30.764 125.181 31.1 125.453 31.372C125.741 31.644 126.077 31.844 126.461 31.972C126.861 32.1 127.301 32.164 127.781 32.164C128.501 32.164 129.101 32.044 129.581 31.804C130.061 31.564 130.421 31.22 130.661 30.772C130.901 30.324 131.021 29.772 131.021 29.116V27.94L132.077 29.116H127.637V26.044H135.389V35.5H132.245L131.933 32.908H131.789C131.597 33.5 131.261 34.012 130.781 34.444C130.317 34.86 129.749 35.18 129.077 35.404C128.421 35.628 127.685 35.74 126.869 35.74ZM138.118 35.5V18.004H143.47L147.598 27.676L147.886 28.564H148.03V18.004H152.11V35.5H146.998L142.558 25.684L142.318 24.988H142.198V35.5H138.118Z" fill="#18181B"/>
<path d="M164.659 21.268H168.955V35.5H164.659V21.268ZM173.395 21.652H160.195V18.004H173.395V21.652ZM181.762 35.74C180.066 35.74 178.642 35.428 177.49 34.804C176.354 34.164 175.498 33.244 174.922 32.044C174.346 30.828 174.058 29.372 174.058 27.676V25.852C174.058 24.508 174.234 23.332 174.586 22.324C174.954 21.316 175.474 20.476 176.146 19.804C176.818 19.132 177.626 18.628 178.57 18.292C179.53 17.956 180.594 17.788 181.762 17.788C183.346 17.788 184.714 18.092 185.866 18.7C187.018 19.292 187.906 20.188 188.53 21.388C189.17 22.572 189.49 24.06 189.49 25.852V27.676C189.49 28.94 189.33 30.076 189.01 31.084C188.69 32.092 188.202 32.94 187.546 33.628C186.906 34.316 186.106 34.844 185.146 35.212C184.186 35.564 183.058 35.74 181.762 35.74ZM181.762 32.068C182.434 32.068 183.018 31.956 183.514 31.732C184.01 31.492 184.386 31.14 184.642 30.676C184.898 30.196 185.026 29.588 185.026 28.852V24.676C185.026 24.18 184.962 23.732 184.834 23.332C184.706 22.932 184.506 22.596 184.234 22.324C183.962 22.036 183.618 21.82 183.202 21.676C182.802 21.516 182.322 21.436 181.762 21.436C181.042 21.436 180.434 21.572 179.938 21.844C179.458 22.1 179.098 22.468 178.858 22.948C178.634 23.428 178.522 24.004 178.522 24.676V28.852C178.522 29.396 178.594 29.876 178.738 30.292C178.882 30.692 179.098 31.028 179.386 31.3C179.674 31.556 180.018 31.748 180.418 31.876C180.834 32.004 181.282 32.068 181.762 32.068ZM191.864 35.5V18.004H196.16V25.564L201.344 18.004H206.456L200.432 26.044V24.748L206.696 35.5H201.632L197.888 28.852L196.16 31.06V35.5H191.864ZM208.505 35.5V18.004H220.625V21.604H212.801V24.916H219.497V28.324H212.801V31.9H220.673V35.5H208.505ZM223.224 35.5V18.004H228.576L232.704 27.676L232.992 28.564H233.136V18.004H237.216V35.5H232.104L227.664 25.684L227.424 24.988H227.304V35.5H223.224ZM246.167 35.74C244.663 35.74 243.415 35.508 242.423 35.044C241.431 34.564 240.687 33.9 240.191 33.052C239.695 32.188 239.455 31.188 239.471 30.052H243.743C243.743 30.58 243.839 31.02 244.031 31.372C244.223 31.708 244.511 31.964 244.895 32.14C245.279 32.3 245.735 32.38 246.263 32.38C246.759 32.38 247.167 32.316 247.487 32.188C247.823 32.06 248.071 31.876 248.231 31.636C248.407 31.38 248.495 31.076 248.495 30.724C248.495 30.34 248.407 30.028 248.231 29.788C248.055 29.548 247.799 29.348 247.463 29.188C247.143 29.012 246.759 28.86 246.311 28.732C245.879 28.604 245.391 28.468 244.847 28.324C244.079 28.116 243.375 27.868 242.735 27.58C242.095 27.276 241.543 26.924 241.079 26.524C240.631 26.108 240.287 25.612 240.047 25.036C239.807 24.46 239.687 23.796 239.687 23.044C239.687 21.876 239.951 20.908 240.479 20.14C241.023 19.356 241.783 18.772 242.759 18.388C243.735 17.988 244.871 17.788 246.167 17.788C247.543 17.788 248.719 17.988 249.695 18.388C250.671 18.788 251.415 19.38 251.927 20.164C252.439 20.948 252.703 21.924 252.719 23.092H248.447C248.447 22.644 248.359 22.276 248.183 21.988C248.007 21.684 247.743 21.452 247.391 21.292C247.055 21.132 246.639 21.052 246.143 21.052C245.727 21.052 245.367 21.116 245.063 21.244C244.759 21.356 244.527 21.532 244.367 21.772C244.223 21.996 244.151 22.26 244.151 22.564C244.151 22.884 244.223 23.156 244.367 23.38C244.527 23.588 244.751 23.772 245.039 23.932C245.327 24.076 245.679 24.212 246.095 24.34C246.511 24.452 246.991 24.572 247.535 24.7C248.143 24.844 248.719 25.02 249.263 25.228C249.807 25.42 250.311 25.66 250.775 25.948C251.239 26.22 251.639 26.564 251.975 26.98C252.311 27.38 252.567 27.86 252.743 28.42C252.935 28.964 253.031 29.604 253.031 30.34C253.031 31.572 252.735 32.588 252.143 33.388C251.567 34.188 250.759 34.78 249.719 35.164C248.695 35.548 247.511 35.74 246.167 35.74Z" fill="#18181B"/>
<path d="M262.017 35.5V18.004H268.473C269.721 18.004 270.761 18.22 271.593 18.652C272.441 19.068 273.073 19.692 273.489 20.524C273.921 21.34 274.137 22.34 274.137 23.524C274.137 24.708 273.921 25.716 273.489 26.548C273.073 27.38 272.441 28.012 271.593 28.444C270.761 28.876 269.713 29.092 268.449 29.092H264.321V27.004H268.209C268.913 27.004 269.505 26.892 269.985 26.668C270.465 26.444 270.825 26.124 271.065 25.708C271.321 25.276 271.449 24.764 271.449 24.172V23.044C271.449 22.42 271.321 21.908 271.065 21.508C270.809 21.092 270.441 20.772 269.961 20.548C269.497 20.324 268.913 20.212 268.209 20.212H264.609V35.5H262.017ZM277.368 35.5V18.004H283.944C285.176 18.004 286.208 18.212 287.04 18.628C287.872 19.028 288.496 19.628 288.912 20.428C289.328 21.212 289.536 22.18 289.536 23.332C289.536 24.308 289.368 25.156 289.032 25.876C288.696 26.596 288.208 27.172 287.568 27.604C286.928 28.036 286.136 28.3 285.192 28.396L285.384 27.892L289.704 35.5H286.728L282.96 28.708H279.672V26.668H283.608C284.296 26.668 284.88 26.564 285.36 26.356C285.84 26.148 286.2 25.844 286.44 25.444C286.696 25.044 286.824 24.556 286.824 23.98V22.9C286.824 22.324 286.696 21.836 286.44 21.436C286.2 21.036 285.84 20.732 285.36 20.524C284.88 20.316 284.296 20.212 283.608 20.212H279.384L279.96 19.636V35.5H277.368ZM299.169 35.74C297.665 35.74 296.369 35.444 295.281 34.852C294.209 34.26 293.385 33.388 292.809 32.236C292.233 31.068 291.945 29.612 291.945 27.868V25.684C291.945 24.34 292.113 23.18 292.449 22.204C292.785 21.212 293.265 20.388 293.889 19.732C294.529 19.076 295.289 18.588 296.169 18.268C297.065 17.948 298.065 17.788 299.169 17.788C300.657 17.788 301.937 18.076 303.009 18.652C304.097 19.228 304.937 20.1 305.529 21.268C306.121 22.436 306.417 23.908 306.417 25.684V27.868C306.417 29.164 306.249 30.308 305.913 31.3C305.593 32.276 305.121 33.1 304.497 33.772C303.889 34.428 303.137 34.924 302.241 35.26C301.345 35.58 300.321 35.74 299.169 35.74ZM299.169 33.508C300.129 33.508 300.945 33.332 301.617 32.98C302.305 32.612 302.825 32.084 303.177 31.396C303.529 30.692 303.705 29.836 303.705 28.828V24.7C303.705 23.996 303.609 23.364 303.417 22.804C303.241 22.228 302.961 21.732 302.577 21.316C302.209 20.9 301.737 20.58 301.161 20.356C300.601 20.132 299.937 20.02 299.169 20.02C298.161 20.02 297.321 20.22 296.649 20.62C295.977 21.004 295.473 21.548 295.137 22.252C294.817 22.956 294.657 23.772 294.657 24.7V28.828C294.657 29.58 294.753 30.252 294.945 30.844C295.153 31.42 295.449 31.908 295.833 32.308C296.233 32.692 296.713 32.988 297.273 33.196C297.833 33.404 298.465 33.508 299.169 33.508Z" fill="#18181B"/>
<defs>
<filter id="filter0_d_174_34" x="0.649297" y="0.874209" width="52.7014" height="58.0857" filterUnits="userSpaceOnUse" color-interpolation-filters="sRGB">
<feFlood flood-opacity="0" result="BackgroundImageFix"/>
<feColorMatrix in="SourceAlpha" type="matrix" values="0 0 0 0 0 0 0 0 0 0 0 0 0 0 0 0 0 0 127 0" result="hardAlpha"/>
<feOffset dy="1.91705"/>
<feGaussianBlur stdDeviation="1.91705"/>
<feComposite in2="hardAlpha" operator="out"/>
<feColorMatrix type="matrix" values="0 0 0 0 0.896296 0 0 0 0 0.896296 0 0 0 0 0.903704 0 0 0 1 0"/>
<feBlend mode="normal" in2="BackgroundImageFix" result="effect1_dropShadow_174_34"/>
<feBlend mode="normal" in="SourceGraphic" in2="effect1_dropShadow_174_34" result="shape"/>
</filter>
<linearGradient id="paint0_linear_174_34" x1="27.1198" y1="3.19816" x2="27.1198" y2="54" gradientUnits="userSpaceOnUse">
<stop stop-color="#DC4104"/>
<stop offset="0.235" stop-color="#DE4408"/>
<stop offset="1" stop-color="#FB7643"/>
</linearGradient>
<linearGradient id="paint1_linear_174_34" x1="26.7708" y1="8.93329" x2="26.7708" y2="46.6084" gradientUnits="userSpaceOnUse">
<stop stop-color="white"/>
<stop offset="1" stop-color="#EBE9E9"/>
</linearGradient>
<linearGradient id="paint2_linear_174_34" x1="27.0001" y1="21.6444" x2="27.0001" y2="34.3556" gradientUnits="userSpaceOnUse">
<stop stop-color="white"/>
<stop offset="1" stop-color="#EBE9E9"/>
</linearGradient>
<linearGradient id="paint3_linear_174_34" x1="16.5998" y1="22.2221" x2="16.4834" y2="22.4316" gradientUnits="userSpaceOnUse">
<stop stop-color="white"/>
<stop offset="1" stop-color="#EBE9E9"/>
</linearGradient>
<linearGradient id="paint4_linear_174_34" x1="37.3998" y1="22.8" x2="37.4971" y2="23.0189" gradientUnits="userSpaceOnUse">
<stop stop-color="white"/>
<stop offset="1" stop-color="#EBE9E9"/>
</linearGradient>
<linearGradient id="paint5_linear_174_34" x1="26.1823" y1="39.5555" x2="25.9427" y2="39.5555" gradientUnits="userSpaceOnUse">
<stop stop-color="white"/>
<stop offset="1" stop-color="#F0F0F0"/>
</linearGradient>
</defs>
</svg>
